<!--?xml version="1.0" encoding="utf-8"?-->
<!-- Generator: Adobe Illustrator 18.1.1, SVG Export Plug-In . SVG Version: 6.00 Build 0)  -->

<svg version="1.1" id="_x32_" xmlns="http://www.w3.org/2000/svg" xmlns:xlink="http://www.w3.org/1999/xlink" x="0px" y="0px" viewBox="0 0 512 512" style="width: 32px; height: 32px; opacity: 1;" xml:space="preserve">
<style type="text/css">
	.st0{fill:#4B4B4B;}
</style>
<g>
	<path class="st0" d="M392.422,235.568c-15.128-36.997-24.001-87.664-27.57-124.107l-1.25-12.626H148.392l-1.259,12.626
		c-3.561,36.452-12.426,87.11-27.563,124.107C88.584,311.755,46.338,373.92,0,413.165h40.727
		c38.684-39.584,72.626-92.291,99.345-154.095l33.596,30.518l41.126-37.365l41.126,37.365l41.149-37.365l41.187,37.357
		l33.658-30.533c26.719,61.811,60.668,114.527,99.353,154.118H512C465.655,373.92,423.416,311.755,392.422,235.568z
		 M338.255,264.358l-41.194-37.372l-41.141,37.372l-41.126-37.38l-41.126,37.372l-26.097-23.718
		c13.747-36.037,21.837-78.882,26.036-113.775h164.779c4.199,34.886,12.297,77.73,26.036,113.775L338.255,264.358z" style="fill: #2c3e50;"></path>
</g>
</svg>
